<svg height="512pt" viewBox="0 -27 512 512" width="512pt" xmlns="http://www.w3.org/2000/svg"><path d="m438.914062 136.984375c-2.8125-4.757813-8.941406-6.332031-13.699218-3.523437-4.753906 2.8125-6.328125 8.941406-3.519532 13.699218 37.367188 63.214844 27.148438 143.683594-24.851562 195.683594-30.410156 30.410156-70.839844 47.15625-113.84375 47.15625s-83.433594-16.746094-113.84375-47.15625c-30.410156-30.40625-47.15625-70.839844-47.15625-113.84375s16.746094-83.4375 47.15625-113.84375c51.640625-51.640625 131.730469-62.082031 194.757812-25.394531 4.773438 2.773437 10.898438 1.160156 13.675782-3.613281 2.777344-4.769532 1.160156-10.894532-3.613282-13.671876-70.871093-41.25-160.910156-29.515624-218.964843 28.535157-34.183594 34.1875-53.011719 79.640625-53.011719 127.988281s18.828125 93.800781 53.015625 127.984375c34.183594 34.1875 79.636719 53.015625 127.984375 53.015625s93.800781-18.828125 127.984375-53.015625c58.457031-58.453125 69.941406-148.921875 27.929687-220zm0 0"/><path d="m397.25 115.5625c1.957031 1.976562 4.53125 2.964844 7.105469 2.964844 2.542969 0 5.085937-.964844 7.039062-2.894532 3.921875-3.886718 3.953125-10.21875.070313-14.140624l-.488282-.492188c-3.914062-3.898438-10.246093-3.886719-14.144531.023438-3.898437 3.914062-3.886719 10.242187.023438 14.144531zm0 0"/><path d="m444.925781 67.070312c-43.25-43.25-100.757812-67.070312-161.925781-67.070312s-118.675781 23.820312-161.925781 67.070312c-16.679688 16.683594-30.457031 35.488282-41.105469 55.800782h-59.96875v-85.742188c0-5.523437-4.476562-10-10-10s-10 4.476563-10 10v345.742188c0 5.523437 4.476562 10 10 10s10-4.476563 10-10v-48h59.835938c10.667968 20.410156 24.488281 39.308594 41.238281 56.058594 43.25 43.25 100.757812 67.070312 161.925781 67.070312s118.675781-23.820312 161.925781-67.070312c43.253907-43.253907 67.074219-100.761719 67.074219-161.929688s-23.820312-118.675781-67.074219-161.929688zm-424.925781 115.800782h38.632812c-3.058593 15.019531-4.632812 30.453125-4.632812 46.128906 0 15.589844 1.554688 30.9375 4.578125 45.871094h-38.578125zm50.695312-40c-2.65625 6.550781-5.011718 13.222656-7.046874 20h-43.648438v-20zm-50.695312 172v-20h43.574219c2.027343 6.78125 4.371093 13.453125 7.019531 20zm263 123.128906c-115.242188 0-209-93.757812-209-209s93.757812-209 209-209 209 93.757812 209 209-93.757812 209-209 209zm0 0"/><path d="m10 410.871094c-2.628906 0-5.210938 1.066406-7.070312 2.929687-1.859376 1.859375-2.929688 4.4375-2.929688 7.070313 0 2.640625 1.070312 5.207031 2.929688 7.066406 1.859374 1.871094 4.441406 2.933594 7.070312 2.933594s5.210938-1.0625 7.070312-2.933594c1.859376-1.859375 2.929688-4.429688 2.929688-7.066406 0-2.632813-1.070312-5.210938-2.929688-7.070313-1.859374-1.859375-4.441406-2.929687-7.070312-2.929687zm0 0"/><path d="m363.644531 192.945312h-53.15625c-4.121093 0-7.8125 2.53125-9.308593 6.363282-1.871094-12.894532-8.769532-24.65625-19.179688-32.558594v-53.335938c0-5.519531-4.476562-10-10-10h-32c-5.523438 0-10 4.480469-10 10v53.335938c-12.28125 9.324219-19.707031 24.019531-19.707031 39.613281v138.222657c0 5.519531 4.476562 10 10 10h71.417969c5.523437 0 10-4.480469 10-10v-42.609376c6.972656 5.507813 15.316406 9.253907 24.359374 10.679688.289063.046875.578126.078125.867188.121094v21.808594h-11.425781c-5.523438 0-10 4.476562-10 10 0 5.519531 4.476562 10 10 10h42.847656c5.523437 0 10-4.480469 10-10 0-5.523438-4.476563-10-10-10h-11.421875v-21.773438c.375-.050781.75-.09375 1.125-.15625 17.109375-2.699219 31.777344-13.644531 39.238281-29.273438 6.113281-12.816406 6.765625-27.792968 1.777344-41.09375l-16.070313-42.851562c-1.464843-3.90625-5.195312-6.492188-9.363281-6.492188zm-6.933593 20 8.898437 23.722657c-4.863281 1.351562-13.046875 1.789062-24.1875-4.015625-11.25-5.855469-20.949219-7.375-28.804687-6.902344l4.804687-12.804688zm-111.667969-32.234374c3.070312-1.792969 4.957031-5.078126 4.957031-8.636719v-15.953125h12v15.953125c0 3.558593 1.886719 6.84375 4.957031 8.636719 9.101563 5.3125 14.75 15.140624 14.75 25.652343v12.636719h-51.417969v-12.636719c0-10.511719 5.652344-20.339843 14.753907-25.652343zm-14.753907 58.289062h51.421876v57.910156h-51.421876zm31.710938-115.585938v12.707032h-12v-12.707032zm-31.710938 211.171876v-17.675782h51.421876v17.675782zm138.957032-59.816407c-4.617188 9.679688-13.707032 16.460938-24.300782 18.132813-5.230468.828125-10.53125.828125-15.757812 0-10.597656-1.671875-19.679688-8.453125-24.300781-18.132813-3.789063-7.941406-4.191407-17.21875-1.105469-25.457031l.257812-.6875c2.546876-1.652344 12.207032-6.53125 28.144532 1.769531 10.257812 5.339844 19.269531 7.144531 26.761718 7.144531 5.085938 0 9.457032-.839843 13.058594-1.960937 1.027344 6.480469.097656 13.214844-2.757812 19.191406zm0 0"/></svg>