<svg height="512pt" viewBox="0 0 512.00235 512" width="512pt" xmlns="http://www.w3.org/2000/svg"><path d="m511.0625 469.835938c-2.335938-5.003907-8.277344-7.171876-13.289062-4.839844l-20.890626 9.742187-38.160156-81.835937c29.148438-18.972656 40.703125-57.085938 25.589844-89.5l-88.644531-190.097656c-1.121094-2.40625-3.152344-4.265626-5.644531-5.171876-2.488282-.90625-5.238282-.789062-7.644532.335938l-106.378906 49.601562-106.375-49.601562c-2.402344-1.121094-5.152344-1.242188-7.644531-.335938-2.492188.90625-4.523438 2.765626-5.644531 5.171876l-88.644532 190.097656c-15.113281 32.414062-3.5625 70.527344 25.589844 89.5l-38.160156 81.835937-20.890625-9.742187c-5.007813-2.332032-10.957031-.167969-13.292969 4.839844-2.332031 5.003906-.167969 10.953124 4.839844 13.289062l59.910156 27.933594c1.367188.640625 2.804688.941406 4.21875.941406 3.765625 0 7.375-2.140625 9.070312-5.777344 2.332032-5.003906.167969-10.953125-4.835937-13.289062l-20.894531-9.742188 38.167968-81.84375c6.773438 2.0625 13.6875 3.082032 20.53125 3.082032 26.761719 0 52.4375-15.191407 64.472657-41l79.582031-170.660157 79.582031 170.660157c12.035157 25.8125 37.710938 41 64.472657 41 6.84375 0 13.757812-1.019532 20.535156-3.082032l38.164062 81.84375-20.890625 9.742188c-5.007812 2.335937-7.171875 8.285156-4.839843 13.289062 1.699218 3.640625 5.304687 5.777344 9.070312 5.777344 1.414062 0 2.855469-.304688 4.222656-.941406l59.90625-27.933594c5.007813-2.335938 7.175782-8.285156 4.839844-13.289062zm-352.765625-114.859376c-11.890625 25.496094-42.304687 36.566407-67.800781 24.675782-25.496094-11.886719-36.566406-42.300782-24.675782-67.796875l35.636719-76.425781h112.585938zm65.070313-139.546874h-112.585938l39.457031-84.609376 92.476563 43.121094zm138.402343-84.609376 39.453125 84.609376h-112.585937l-19.34375-41.488282zm-8.058593 224.15625-55.746094-119.546874h112.582031l35.640625 76.425781c11.886719 25.496093.816406 55.910156-24.679688 67.796875-25.492187 11.886718-55.910156.820312-67.796874-24.675782zm0 0"/><path d="m256.007812 85.167969c5.519532 0 10-4.476563 10-10v-65.167969c0-5.523438-4.480468-10-10-10-5.523437 0-10 4.476562-10 10v65.167969c0 5.523437 4.476563 10 10 10zm0 0"/><path d="m256.007812 125.171875c2.628907 0 5.207032-1.070313 7.066407-2.933594 1.863281-1.859375 2.933593-4.4375 2.933593-7.066406 0-2.632813-1.070312-5.210937-2.933593-7.070313-1.859375-1.863281-4.4375-2.929687-7.066407-2.929687-2.632812 0-5.210937 1.066406-7.070312 2.929687-1.859375 1.859376-2.929688 4.4375-2.929688 7.070313 0 2.628906 1.066407 5.207031 2.929688 7.066406 1.859375 1.863281 4.4375 2.933594 7.070312 2.933594zm0 0"/><path d="m295.007812 102c2.558594 0 5.117188-.976562 7.070313-2.929688l34-34c3.902344-3.902343 3.902344-10.234374 0-14.140624-3.90625-3.90625-10.238281-3.90625-14.144531 0l-34 34c-3.902344 3.902343-3.902344 10.234374 0 14.140624 1.953125 1.953126 4.511718 2.929688 7.074218 2.929688zm0 0"/><path d="m209.933594 99.070312c1.953125 1.953126 4.511718 2.929688 7.074218 2.929688 2.558594 0 5.117188-.976562 7.070313-2.929688 3.902344-3.902343 3.902344-10.234374 0-14.140624l-34-34c-3.90625-3.90625-10.238281-3.90625-14.144531 0-3.902344 3.90625-3.902344 10.238281 0 14.144531zm0 0"/><path d="m361.027344 264.15625-.148438-.324219c-2.335937-5.003906-8.285156-7.175781-13.289062-4.839843-5.007813 2.332031-7.175782 8.28125-4.84375 13.285156l.148437.320312c1.699219 3.640625 5.304688 5.78125 9.074219 5.78125 1.410156 0 2.847656-.300781 4.214844-.9375 5.007812-2.332031 7.175781-8.28125 4.84375-13.285156zm0 0"/><path d="m376.722656 297.816406c-2.332031-5.003906-8.28125-7.171875-13.289062-4.835937-5.003906 2.332031-7.171875 8.285156-4.835938 13.289062l21.308594 45.695313c1.695312 3.640625 5.304688 5.777344 9.070312 5.777344 1.414063 0 2.851563-.300782 4.21875-.941407 5.003907-2.332031 7.171876-8.28125 4.835938-13.285156zm0 0"/></svg>